# MagicaVoxel @ Ephtracy

# group
o 

# material
mtllib Maquina Cuspidora.mtl
usemtl palette

# normals
vn -1 0 0
vn 1 0 0
vn 0 0 1
vn 0 0 -1
vn 0 -1 0
vn 0 1 0

# texcoords
vt 0.982422 0.5
vt 0.986328 0.5
vt 0.990234 0.5
vt 0.994141 0.5

# verts
v 1 3.3 -1.3
v 1 3.3 -2.3
v 1 3.4 -1.4
v 1 3.4 -2.2
v 1 4.2 -1.4
v 1 4.2 -2.2
v 1 4.3 -1.3
v 1 4.3 -2.3
v 1.1 3.4 -1.4
v 1.1 3.4 -2.2
v 1.1 3.5 -1.5
v 1.1 3.5 -2.1
v 1.1 4.1 -1.5
v 1.1 4.1 -2.1
v 1.1 4.2 -1.4
v 1.1 4.2 -2.2
v 1.3 2 -1.5
v 1.3 2 -2.1
v 1.3 2.1 -1.5
v 1.3 2.1 -2.1
v 1.3 2.7 -1.7
v 1.3 2.7 -1.9
v 1.3 3 -1.6
v 1.3 3 -1.7
v 1.3 3 -1.9
v 1.3 3 -2
v 1.3 3.3 -1.6
v 1.3 3.3 -2
v 1.4 2 -1.4
v 1.4 2 -1.5
v 1.4 2 -2.1
v 1.4 2 -2.2
v 1.4 2.1 -1.4
v 1.4 2.1 -1.5
v 1.4 2.1 -2.1
v 1.4 2.1 -2.2
v 1.4 2.2 -1.5
v 1.4 2.2 -1.6
v 1.4 2.2 -2
v 1.4 2.2 -2.1
v 1.4 2.3 -1.6
v 1.4 2.3 -1.7
v 1.4 2.3 -1.9
v 1.4 2.3 -2
v 1.4 2.7 -1.6
v 1.4 2.7 -1.7
v 1.4 2.7 -1.9
v 1.4 2.7 -2
v 1.4 3 -1.6
v 1.4 3 -1.7
v 1.4 3 -1.9
v 1.4 3 -2
v 1.4 3.2 -1.4
v 1.4 3.2 -1.6
v 1.4 3.2 -2
v 1.4 3.2 -2.2
v 1.4 3.3 -1.4
v 1.4 3.3 -1.6
v 1.4 3.3 -2
v 1.4 3.3 -2.2
v 1.5 2 -1.3
v 1.5 2 -1.4
v 1.5 2 -2.2
v 1.5 2 -2.3
v 1.5 2.1 -1.3
v 1.5 2.1 -1.4
v 1.5 2.1 -2.1
v 1.5 2.1 -2.2
v 1.5 2.1 -2.3
v 1.5 2.2 -1.5
v 1.5 2.2 -1.6
v 1.5 2.2 -2
v 1.5 2.2 -2.1
v 1.5 2.2 -2.2
v 1.5 2.3 -1.6
v 1.5 2.3 -1.7
v 1.5 2.3 -1.9
v 1.5 2.3 -2
v 1.5 2.7 -1.6
v 1.5 2.7 -1.7
v 1.5 2.7 -1.9
v 1.5 2.7 -2
v 1.5 3.1 -1.4
v 1.5 3.1 -1.5
v 1.5 3.1 -2.1
v 1.5 3.1 -2.2
v 1.5 3.2 -1.3
v 1.5 3.2 -1.4
v 1.5 3.2 -1.6
v 1.5 3.2 -2
v 1.5 3.2 -2.2
v 1.5 3.2 -2.3
v 1.5 3.3 -1.3
v 1.5 3.3 -1.4
v 1.5 3.3 -2.2
v 1.5 3.3 -2.3
v 1.6 2.1 -1.4
v 1.6 2.1 -1.5
v 1.6 2.2 -2.1
v 1.6 2.2 -2.2
v 1.6 2.3 -1.4
v 1.6 2.3 -1.5
v 1.6 2.3 -2.1
v 1.6 2.3 -2.2
v 2 3.5 -1.5
v 2 3.5 -2.1
v 2 4.1 -1.5
v 2 4.1 -2.1
v 2.5 3.8 -1.4
v 2.5 3.8 -2.2
v 2.5 3.9 -1.4
v 2.5 3.9 -2.2
v 2.7 3.9 -1.4
v 2.7 3.9 -2.2
v 2.7 4.2 -1.4
v 2.7 4.2 -2.2
v 2.2 2.2 -1.4
v 2.2 2.2 -1.5
v 2.2 2.2 -2.1
v 2.2 2.2 -2.2
v 2.2 2.3 -1.4
v 2.2 2.3 -1.5
v 2.2 2.3 -2.1
v 2.2 2.3 -2.2
v 2.2 3.8 -1.4
v 2.2 3.8 -2.2
v 2.2 4.2 -1.4
v 2.2 4.2 -2.2
v 2.3 2.1 -1.4
v 2.3 2.1 -1.5
v 2.3 2.1 -2.1
v 2.3 2.1 -2.2
v 2.3 2.2 -1.4
v 2.3 2.2 -1.5
v 2.3 2.2 -2
v 2.3 2.2 -2.1
v 2.3 2.2 -2.2
v 2.3 2.3 -2
v 2.3 2.3 -2.1
v 2.4 2 -1.3
v 2.4 2 -1.4
v 2.4 2 -2.2
v 2.4 2 -2.3
v 2.4 2.1 -1.3
v 2.4 2.1 -1.4
v 2.4 2.1 -1.5
v 2.4 2.1 -1.6
v 2.4 2.1 -2
v 2.4 2.1 -2.1
v 2.4 2.1 -2.2
v 2.4 2.1 -2.3
v 2.4 2.2 -2
v 2.4 2.2 -2.1
v 2.4 2.3 -1.6
v 2.4 2.3 -1.7
v 2.4 2.3 -1.9
v 2.4 2.3 -2
v 2.4 2.3 -2.1
v 2.4 2.4 -1.7
v 2.4 2.4 -1.9
v 2.4 3 -1.7
v 2.4 3 -1.9
v 2.4 3.1 -1.5
v 2.4 3.1 -1.7
v 2.4 3.1 -1.9
v 2.4 3.1 -2.1
v 2.5 2 -1.4
v 2.5 2 -1.5
v 2.5 2 -2.1
v 2.5 2 -2.2
v 2.5 2.1 -1.4
v 2.5 2.1 -1.5
v 2.5 2.1 -1.6
v 2.5 2.1 -1.7
v 2.5 2.1 -1.9
v 2.5 2.1 -2
v 2.5 2.1 -2.1
v 2.5 2.1 -2.2
v 2.5 2.2 -1.7
v 2.5 2.2 -1.9
v 2.5 2.3 -1.6
v 2.5 2.3 -1.7
v 2.5 2.3 -1.9
v 2.5 2.3 -2
v 2.5 2.4 -1.7
v 2.5 2.4 -1.9
v 2.5 3 -1.7
v 2.5 3 -1.9
v 2.5 3.1 -1.4
v 2.5 3.1 -1.7
v 2.5 3.1 -1.9
v 2.5 3.1 -2.2
v 2.5 3.2 -1.3
v 2.5 3.2 -1.4
v 2.5 3.2 -1.7
v 2.5 3.2 -1.9
v 2.5 3.2 -2.2
v 2.5 3.2 -2.3
v 2.5 3.3 -1.3
v 2.5 3.3 -1.4
v 2.5 3.3 -2.2
v 2.5 3.3 -2.3
v 2.6 2 -1.5
v 2.6 2 -2.1
v 2.6 2.1 -1.5
v 2.6 2.1 -1.7
v 2.6 2.1 -1.9
v 2.6 2.1 -2.1
v 2.6 2.2 -1.7
v 2.6 2.2 -1.9
v 2.6 3.1 -1.7
v 2.6 3.1 -1.9
v 2.6 3.2 -1.4
v 2.6 3.2 -1.6
v 2.6 3.2 -1.7
v 2.6 3.2 -1.9
v 2.6 3.2 -2
v 2.6 3.2 -2.2
v 2.6 3.3 -1.4
v 2.6 3.3 -1.6
v 2.6 3.3 -2
v 2.6 3.3 -2.2
v 2.7 3.2 -1.6
v 2.7 3.2 -2
v 2.7 3.3 -1.6
v 2.7 3.3 -2
v 2.9 3.3 -1.3
v 2.9 3.3 -2.3
v 2.9 3.4 -1.4
v 2.9 3.4 -2.2
v 2.9 3.5 -1.5
v 2.9 3.5 -2.1
v 2.9 4.1 -1.5
v 2.9 4.1 -2.1
v 2.9 4.2 -1.4
v 2.9 4.2 -2.2
v 2.9 4.3 -1.3
v 2.9 4.3 -2.3
v 3 3.5 -1.5
v 3 3.5 -2.1
v 3 3.6 -1.6
v 3 3.6 -2
v 3 4 -1.6
v 3 4 -2
v 3 4.1 -1.5
v 3 4.1 -2.1
v 3.6 3.6 -1.6
v 3.6 3.6 -2
v 3.6 4 -1.6
v 3.6 4 -2
v 1 3.3 -1.3
v 1 4.3 -1.3
v 1.1 3.4 -1.3
v 1.1 4.2 -1.3
v 1.5 2 -1.3
v 1.5 2.1 -1.3
v 1.5 3.2 -1.3
v 1.5 3.3 -1.3
v 2.4 2 -1.3
v 2.4 2.1 -1.3
v 2.5 3.2 -1.3
v 2.5 3.3 -1.3
v 2.8 3.4 -1.3
v 2.8 4.2 -1.3
v 2.9 3.3 -1.3
v 2.9 4.3 -1.3
v 1.4 2 -1.4
v 1.4 2.1 -1.4
v 1.4 3.2 -1.4
v 1.4 3.3 -1.4
v 1.5 2 -1.4
v 1.5 2.1 -1.4
v 1.5 3.1 -1.4
v 1.5 3.2 -1.4
v 1.5 3.3 -1.4
v 1.6 2.1 -1.4
v 1.6 2.3 -1.4
v 2.2 2.2 -1.4
v 2.2 2.3 -1.4
v 2.3 2.1 -1.4
v 2.3 2.2 -1.4
v 2.4 2 -1.4
v 2.4 2.1 -1.4
v 2.5 2 -1.4
v 2.5 2.1 -1.4
v 2.5 3.1 -1.4
v 2.5 3.2 -1.4
v 2.5 3.3 -1.4
v 2.6 3.2 -1.4
v 2.6 3.3 -1.4
v 1.3 2 -1.5
v 1.3 2.1 -1.5
v 1.4 2 -1.5
v 1.4 2.1 -1.5
v 1.4 2.2 -1.5
v 1.5 2.2 -1.5
v 1.5 3.1 -1.5
v 1.6 2.1 -1.5
v 1.6 2.3 -1.5
v 2.2 2.2 -1.5
v 2.2 2.3 -1.5
v 2.3 2.1 -1.5
v 2.3 2.2 -1.5
v 2.4 2.1 -1.5
v 2.4 3.1 -1.5
v 2.5 2 -1.5
v 2.5 2.1 -1.5
v 2.6 2 -1.5
v 2.6 2.1 -1.5
v 2.9 3.5 -1.5
v 2.9 4.1 -1.5
v 3 3.5 -1.5
v 3 4.1 -1.5
v 1.3 3 -1.6
v 1.3 3.3 -1.6
v 1.4 2.2 -1.6
v 1.4 2.3 -1.6
v 1.4 2.7 -1.6
v 1.4 3 -1.6
v 1.4 3.2 -1.6
v 1.4 3.3 -1.6
v 1.5 2.2 -1.6
v 1.5 2.3 -1.6
v 1.5 2.7 -1.6
v 1.5 3.2 -1.6
v 2.4 2.1 -1.6
v 2.4 2.3 -1.6
v 2.5 2.1 -1.6
v 2.5 2.3 -1.6
v 2.6 3.2 -1.6
v 2.6 3.3 -1.6
v 2.7 3.2 -1.6
v 2.7 3.3 -1.6
v 3 3.6 -1.6
v 3 4 -1.6
v 3.6 3.6 -1.6
v 3.6 4 -1.6
v 1.3 2.7 -1.7
v 1.3 3 -1.7
v 1.4 2.3 -1.7
v 1.4 2.7 -1.7
v 1.4 3 -1.7
v 1.5 2.3 -1.7
v 1.5 2.7 -1.7
v 2.4 2.3 -1.7
v 2.4 2.4 -1.7
v 2.4 3 -1.7
v 2.4 3.1 -1.7
v 2.5 2.1 -1.7
v 2.5 2.2 -1.7
v 2.5 2.3 -1.7
v 2.5 2.4 -1.7
v 2.5 3 -1.7
v 2.5 3.1 -1.7
v 2.5 3.2 -1.7
v 2.6 2.1 -1.7
v 2.6 2.2 -1.7
v 2.6 3.1 -1.7
v 2.6 3.2 -1.7
v 1.1 3.5 -2.1
v 1.1 4.1 -2.1
v 2 3.5 -2.1
v 2 4.1 -2.1
v 1 3.4 -2.2
v 1 4.2 -2.2
v 1.1 3.4 -2.2
v 1.1 4.2 -2.2
v 2.2 3.8 -2.2
v 2.2 4.2 -2.2
v 2.5 3.8 -2.2
v 2.5 3.9 -2.2
v 2.7 3.9 -2.2
v 2.7 4.2 -2.2
v 1 3.4 -1.4
v 1 4.2 -1.4
v 1.1 3.4 -1.4
v 1.1 4.2 -1.4
v 2.2 3.8 -1.4
v 2.2 4.2 -1.4
v 2.5 3.8 -1.4
v 2.5 3.9 -1.4
v 2.7 3.9 -1.4
v 2.7 4.2 -1.4
v 1.1 3.5 -1.5
v 1.1 4.1 -1.5
v 2 3.5 -1.5
v 2 4.1 -1.5
v 1.3 2.7 -1.9
v 1.3 3 -1.9
v 1.4 2.3 -1.9
v 1.4 2.7 -1.9
v 1.4 3 -1.9
v 1.5 2.3 -1.9
v 1.5 2.7 -1.9
v 2.4 2.3 -1.9
v 2.4 2.4 -1.9
v 2.4 3 -1.9
v 2.4 3.1 -1.9
v 2.5 2.1 -1.9
v 2.5 2.2 -1.9
v 2.5 2.3 -1.9
v 2.5 2.4 -1.9
v 2.5 3 -1.9
v 2.5 3.1 -1.9
v 2.5 3.2 -1.9
v 2.6 2.1 -1.9
v 2.6 2.2 -1.9
v 2.6 3.1 -1.9
v 2.6 3.2 -1.9
v 1.3 3 -2
v 1.3 3.3 -2
v 1.4 2.2 -2
v 1.4 2.3 -2
v 1.4 2.7 -2
v 1.4 3 -2
v 1.4 3.2 -2
v 1.4 3.3 -2
v 1.5 2.2 -2
v 1.5 2.3 -2
v 1.5 2.7 -2
v 1.5 3.2 -2
v 2.3 2.2 -2
v 2.3 2.3 -2
v 2.4 2.1 -2
v 2.4 2.2 -2
v 2.4 2.3 -2
v 2.5 2.1 -2
v 2.5 2.3 -2
v 2.6 3.2 -2
v 2.6 3.3 -2
v 2.7 3.2 -2
v 2.7 3.3 -2
v 3 3.6 -2
v 3 4 -2
v 3.6 3.6 -2
v 3.6 4 -2
v 1.3 2 -2.1
v 1.3 2.1 -2.1
v 1.4 2 -2.1
v 1.4 2.1 -2.1
v 1.4 2.2 -2.1
v 1.5 2.1 -2.1
v 1.5 2.2 -2.1
v 1.5 3.1 -2.1
v 1.6 2.2 -2.1
v 1.6 2.3 -2.1
v 2.2 2.2 -2.1
v 2.2 2.3 -2.1
v 2.3 2.1 -2.1
v 2.3 2.2 -2.1
v 2.3 2.3 -2.1
v 2.4 2.1 -2.1
v 2.4 2.2 -2.1
v 2.4 2.3 -2.1
v 2.4 3.1 -2.1
v 2.5 2 -2.1
v 2.5 2.1 -2.1
v 2.6 2 -2.1
v 2.6 2.1 -2.1
v 2.9 3.5 -2.1
v 2.9 4.1 -2.1
v 3 3.5 -2.1
v 3 4.1 -2.1
v 1.4 2 -2.2
v 1.4 2.1 -2.2
v 1.4 3.2 -2.2
v 1.4 3.3 -2.2
v 1.5 2 -2.2
v 1.5 2.1 -2.2
v 1.5 2.2 -2.2
v 1.5 3.1 -2.2
v 1.5 3.2 -2.2
v 1.5 3.3 -2.2
v 1.6 2.2 -2.2
v 1.6 2.3 -2.2
v 2.2 2.2 -2.2
v 2.2 2.3 -2.2
v 2.3 2.1 -2.2
v 2.3 2.2 -2.2
v 2.4 2 -2.2
v 2.4 2.1 -2.2
v 2.5 2 -2.2
v 2.5 2.1 -2.2
v 2.5 3.1 -2.2
v 2.5 3.2 -2.2
v 2.5 3.3 -2.2
v 2.6 3.2 -2.2
v 2.6 3.3 -2.2
v 1 3.3 -2.3
v 1 4.3 -2.3
v 1.1 3.4 -2.3
v 1.1 4.2 -2.3
v 1.5 2 -2.3
v 1.5 2.1 -2.3
v 1.5 3.2 -2.3
v 1.5 3.3 -2.3
v 2.4 2 -2.3
v 2.4 2.1 -2.3
v 2.5 3.2 -2.3
v 2.5 3.3 -2.3
v 2.8 3.4 -2.3
v 2.8 4.2 -2.3
v 2.9 3.3 -2.3
v 2.9 4.3 -2.3
v 1.5 2 -1.3
v 2.4 2 -1.3
v 1.4 2 -1.4
v 1.5 2 -1.4
v 2.4 2 -1.4
v 2.5 2 -1.4
v 1.3 2 -1.5
v 1.4 2 -1.5
v 2.5 2 -1.5
v 2.6 2 -1.5
v 1.7 2 -1.6
v 2.2 2 -1.6
v 1.7 2 -2
v 2.2 2 -2
v 1.3 2 -2.1
v 1.4 2 -2.1
v 2.5 2 -2.1
v 2.6 2 -2.1
v 1.4 2 -2.2
v 1.5 2 -2.2
v 2.4 2 -2.2
v 2.5 2 -2.2
v 1.5 2 -2.3
v 2.4 2 -2.3
v 2.3 2.3 -2
v 2.4 2.3 -2
v 2.3 2.3 -2.1
v 2.4 2.3 -2.1
v 1.4 2.7 -1.6
v 1.5 2.7 -1.6
v 1.3 2.7 -1.7
v 1.4 2.7 -1.7
v 1.5 2.7 -1.7
v 1.3 2.7 -1.9
v 1.4 2.7 -1.9
v 1.5 2.7 -1.9
v 1.4 2.7 -2
v 1.5 2.7 -2
v 1.3 3 -1.6
v 1.4 3 -1.6
v 1.3 3 -1.7
v 1.4 3 -1.7
v 2.4 3 -1.7
v 2.5 3 -1.7
v 1.3 3 -1.9
v 1.4 3 -1.9
v 2.4 3 -1.9
v 2.5 3 -1.9
v 1.3 3 -2
v 1.4 3 -2
v 1.5 3.1 -1.4
v 2.5 3.1 -1.4
v 1.5 3.1 -1.5
v 2.4 3.1 -1.5
v 2.4 3.1 -1.7
v 2.5 3.1 -1.7
v 2.6 3.1 -1.7
v 2.4 3.1 -1.9
v 2.5 3.1 -1.9
v 2.6 3.1 -1.9
v 1.5 3.1 -2.1
v 2.4 3.1 -2.1
v 1.5 3.1 -2.2
v 2.5 3.1 -2.2
v 1.5 3.2 -1.3
v 2.5 3.2 -1.3
v 1.4 3.2 -1.4
v 1.5 3.2 -1.4
v 2.5 3.2 -1.4
v 2.6 3.2 -1.4
v 1.4 3.2 -1.6
v 1.5 3.2 -1.6
v 2.6 3.2 -1.6
v 2.7 3.2 -1.6
v 2.5 3.2 -1.7
v 2.6 3.2 -1.7
v 2.5 3.2 -1.9
v 2.6 3.2 -1.9
v 1.4 3.2 -2
v 1.5 3.2 -2
v 2.6 3.2 -2
v 2.7 3.2 -2
v 1.4 3.2 -2.2
v 1.5 3.2 -2.2
v 2.5 3.2 -2.2
v 2.6 3.2 -2.2
v 1.5 3.2 -2.3
v 2.5 3.2 -2.3
v 1 3.3 -1.3
v 1.5 3.3 -1.3
v 2.5 3.3 -1.3
v 2.9 3.3 -1.3
v 1.4 3.3 -1.4
v 1.5 3.3 -1.4
v 2.5 3.3 -1.4
v 2.6 3.3 -1.4
v 1.3 3.3 -1.6
v 1.4 3.3 -1.6
v 2.6 3.3 -1.6
v 2.7 3.3 -1.6
v 1.3 3.3 -2
v 1.4 3.3 -2
v 2.6 3.3 -2
v 2.7 3.3 -2
v 1.4 3.3 -2.2
v 1.5 3.3 -2.2
v 2.5 3.3 -2.2
v 2.6 3.3 -2.2
v 1 3.3 -2.3
v 1.5 3.3 -2.3
v 2.5 3.3 -2.3
v 2.9 3.3 -2.3
v 2.9 3.5 -1.5
v 3 3.5 -1.5
v 2.9 3.5 -2.1
v 3 3.5 -2.1
v 3 3.6 -1.6
v 3.6 3.6 -1.6
v 3 3.6 -2
v 3.6 3.6 -2
v 1.1 4.1 -1.5
v 2 4.1 -1.5
v 1.1 4.1 -2.1
v 2 4.1 -2.1
v 1 4.2 -1.4
v 1.1 4.2 -1.4
v 2.2 4.2 -1.4
v 2.7 4.2 -1.4
v 1 4.2 -2.2
v 1.1 4.2 -2.2
v 2.2 4.2 -2.2
v 2.7 4.2 -2.2
v 1.5 2.1 -1.3
v 2.4 2.1 -1.3
v 1.4 2.1 -1.4
v 1.5 2.1 -1.4
v 1.6 2.1 -1.4
v 2.3 2.1 -1.4
v 2.4 2.1 -1.4
v 2.5 2.1 -1.4
v 1.3 2.1 -1.5
v 1.4 2.1 -1.5
v 1.6 2.1 -1.5
v 2.3 2.1 -1.5
v 2.4 2.1 -1.5
v 2.5 2.1 -1.5
v 2.6 2.1 -1.5
v 2.4 2.1 -1.6
v 2.5 2.1 -1.6
v 2.5 2.1 -1.7
v 2.6 2.1 -1.7
v 2.5 2.1 -1.9
v 2.6 2.1 -1.9
v 2.4 2.1 -2
v 2.5 2.1 -2
v 1.3 2.1 -2.1
v 1.4 2.1 -2.1
v 1.5 2.1 -2.1
v 2.3 2.1 -2.1
v 2.4 2.1 -2.1
v 2.5 2.1 -2.1
v 2.6 2.1 -2.1
v 1.4 2.1 -2.2
v 1.5 2.1 -2.2
v 2.3 2.1 -2.2
v 2.4 2.1 -2.2
v 2.5 2.1 -2.2
v 1.5 2.1 -2.3
v 2.4 2.1 -2.3
v 2.2 2.2 -1.4
v 2.3 2.2 -1.4
v 1.4 2.2 -1.5
v 1.5 2.2 -1.5
v 2.2 2.2 -1.5
v 2.3 2.2 -1.5
v 1.4 2.2 -1.6
v 1.5 2.2 -1.6
v 2.5 2.2 -1.7
v 2.6 2.2 -1.7
v 2.5 2.2 -1.9
v 2.6 2.2 -1.9
v 1.4 2.2 -2
v 1.5 2.2 -2
v 2.3 2.2 -2
v 2.4 2.2 -2
v 1.4 2.2 -2.1
v 1.5 2.2 -2.1
v 1.6 2.2 -2.1
v 2.2 2.2 -2.1
v 2.3 2.2 -2.1
v 2.4 2.2 -2.1
v 1.5 2.2 -2.2
v 1.6 2.2 -2.2
v 2.2 2.2 -2.2
v 2.3 2.2 -2.2
v 1.6 2.3 -1.4
v 2.2 2.3 -1.4
v 1.6 2.3 -1.5
v 2.2 2.3 -1.5
v 1.4 2.3 -1.6
v 1.5 2.3 -1.6
v 2.4 2.3 -1.6
v 2.5 2.3 -1.6
v 1.4 2.3 -1.7
v 1.5 2.3 -1.7
v 2.4 2.3 -1.7
v 2.5 2.3 -1.7
v 1.4 2.3 -1.9
v 1.5 2.3 -1.9
v 2.4 2.3 -1.9
v 2.5 2.3 -1.9
v 1.4 2.3 -2
v 1.5 2.3 -2
v 2.4 2.3 -2
v 2.5 2.3 -2
v 1.6 2.3 -2.1
v 2.2 2.3 -2.1
v 1.6 2.3 -2.2
v 2.2 2.3 -2.2
v 2.4 2.4 -1.7
v 2.5 2.4 -1.7
v 2.4 2.4 -1.9
v 2.5 2.4 -1.9
v 1 3.4 -1.4
v 1.1 3.4 -1.4
v 1 3.4 -2.2
v 1.1 3.4 -2.2
v 1.1 3.5 -1.5
v 2 3.5 -1.5
v 1.1 3.5 -2.1
v 2 3.5 -2.1
v 2.2 3.8 -1.4
v 2.5 3.8 -1.4
v 2.2 3.8 -2.2
v 2.5 3.8 -2.2
v 2.5 3.9 -1.4
v 2.7 3.9 -1.4
v 2.5 3.9 -2.2
v 2.7 3.9 -2.2
v 3 4 -1.6
v 3.6 4 -1.6
v 3 4 -2
v 3.6 4 -2
v 2.9 4.1 -1.5
v 3 4.1 -1.5
v 2.9 4.1 -2.1
v 3 4.1 -2.1
v 1 4.3 -1.3
v 2.9 4.3 -1.3
v 1 4.3 -2.3
v 2.9 4.3 -2.3

# faces
f 3/3/1 2/3/1 1/3/1
f 4/3/1 2/3/1 3/3/1
f 5/3/1 3/3/1 1/3/1
f 6/3/1 2/3/1 4/3/1
f 7/3/1 5/3/1 1/3/1
f 7/3/1 6/3/1 5/3/1
f 8/3/1 2/3/1 6/3/1
f 8/3/1 6/3/1 7/3/1
f 11/4/1 10/4/1 9/4/1
f 12/4/1 10/4/1 11/4/1
f 13/4/1 11/4/1 9/4/1
f 14/4/1 10/4/1 12/4/1
f 15/4/1 13/4/1 9/4/1
f 15/4/1 14/4/1 13/4/1
f 16/4/1 10/4/1 14/4/1
f 16/4/1 14/4/1 15/4/1
f 19/1/1 18/1/1 17/1/1
f 20/1/1 18/1/1 19/1/1
f 24/2/1 22/2/1 21/2/1
f 25/2/1 22/2/1 24/2/1
f 27/2/1 24/2/1 23/2/1
f 27/2/1 26/2/1 25/2/1
f 27/2/1 25/2/1 24/2/1
f 28/2/1 26/2/1 27/2/1
f 33/1/1 30/1/1 29/1/1
f 34/1/1 30/1/1 33/1/1
f 35/1/1 32/1/1 31/1/1
f 36/1/1 32/1/1 35/1/1
f 37/2/1 35/2/1 34/2/1
f 38/2/1 35/2/1 37/2/1
f 39/2/1 35/2/1 38/2/1
f 40/2/1 35/2/1 39/2/1
f 41/2/1 39/2/1 38/2/1
f 42/2/1 39/2/1 41/2/1
f 43/2/1 39/2/1 42/2/1
f 44/2/1 39/2/1 43/2/1
f 46/2/1 43/2/1 42/2/1
f 47/2/1 43/2/1 46/2/1
f 49/2/1 46/2/1 45/2/1
f 50/2/1 46/2/1 49/2/1
f 51/2/1 48/2/1 47/2/1
f 52/2/1 48/2/1 51/2/1
f 57/2/1 54/2/1 53/2/1
f 58/2/1 54/2/1 57/2/1
f 59/2/1 56/2/1 55/2/1
f 60/2/1 56/2/1 59/2/1
f 65/1/1 62/1/1 61/1/1
f 66/1/1 62/1/1 65/1/1
f 68/1/1 64/1/1 63/1/1
f 69/1/1 64/1/1 68/1/1
f 73/2/1 68/2/1 67/2/1
f 74/2/1 68/2/1 73/2/1
f 75/2/1 71/2/1 70/2/1
f 78/2/1 73/2/1 72/2/1
f 79/2/1 76/2/1 75/2/1
f 79/2/1 75/2/1 70/2/1
f 80/2/1 76/2/1 79/2/1
f 81/2/1 78/2/1 77/2/1
f 82/2/1 73/2/1 78/2/1
f 82/2/1 78/2/1 81/2/1
f 84/2/1 79/2/1 70/2/1
f 85/2/1 73/2/1 82/2/1
f 88/2/1 84/2/1 83/2/1
f 89/2/1 79/2/1 84/2/1
f 89/2/1 84/2/1 88/2/1
f 90/2/1 86/2/1 85/2/1
f 90/2/1 85/2/1 82/2/1
f 91/2/1 86/2/1 90/2/1
f 93/2/1 88/2/1 87/2/1
f 94/2/1 88/2/1 93/2/1
f 95/2/1 92/2/1 91/2/1
f 96/2/1 92/2/1 95/2/1
f 101/2/1 98/2/1 97/2/1
f 102/2/1 98/2/1 101/2/1
f 103/2/1 100/2/1 99/2/1
f 104/2/1 100/2/1 103/2/1
f 107/4/1 106/4/1 105/4/1
f 108/4/1 106/4/1 107/4/1
f 111/1/1 110/1/1 109/1/1
f 112/1/1 110/1/1 111/1/1
f 115/1/1 114/1/1 113/1/1
f 116/1/1 114/1/1 115/1/1
f 117/2/2 118/2/2 121/2/2
f 121/2/2 118/2/2 122/2/2
f 119/2/2 120/2/2 123/2/2
f 123/2/2 120/2/2 124/2/2
f 125/4/2 126/4/2 127/4/2
f 127/4/2 126/4/2 128/4/2
f 129/2/2 130/2/2 133/2/2
f 133/2/2 130/2/2 134/2/2
f 131/2/2 132/2/2 136/2/2
f 136/2/2 132/2/2 137/2/2
f 135/2/2 136/2/2 138/2/2
f 138/2/2 136/2/2 139/2/2
f 140/1/2 141/1/2 144/1/2
f 144/1/2 141/1/2 145/1/2
f 142/1/2 143/1/2 150/1/2
f 150/1/2 143/1/2 151/1/2
f 148/2/2 149/2/2 152/2/2
f 152/2/2 149/2/2 153/2/2
f 146/2/2 147/2/2 154/2/2
f 154/2/2 155/2/2 159/2/2
f 157/2/2 158/2/2 160/2/2
f 156/2/2 157/2/2 160/2/2
f 154/2/2 159/2/2 161/2/2
f 159/2/2 160/2/2 161/2/2
f 160/2/2 158/2/2 162/2/2
f 161/2/2 160/2/2 162/2/2
f 146/2/2 154/2/2 163/2/2
f 154/2/2 161/2/2 163/2/2
f 163/2/2 161/2/2 164/2/2
f 162/2/2 158/2/2 165/2/2
f 165/2/2 158/2/2 166/2/2
f 167/1/2 168/1/2 171/1/2
f 171/1/2 168/1/2 172/1/2
f 169/1/2 170/1/2 177/1/2
f 177/1/2 170/1/2 178/1/2
f 173/2/2 174/2/2 179/2/2
f 175/2/2 176/2/2 180/2/2
f 173/2/2 179/2/2 181/2/2
f 179/2/2 180/2/2 181/2/2
f 181/2/2 180/2/2 182/2/2
f 180/2/2 176/2/2 183/2/2
f 182/2/2 180/2/2 183/2/2
f 183/2/2 176/2/2 184/2/2
f 182/2/2 183/2/2 185/2/2
f 185/2/2 183/2/2 186/2/2
f 187/2/2 188/2/2 190/2/2
f 190/2/2 188/2/2 191/2/2
f 189/2/2 190/2/2 194/2/2
f 194/2/2 190/2/2 195/2/2
f 191/2/2 192/2/2 196/2/2
f 196/2/2 192/2/2 197/2/2
f 193/2/2 194/2/2 199/2/2
f 199/2/2 194/2/2 200/2/2
f 197/2/2 198/2/2 201/2/2
f 201/2/2 198/2/2 202/2/2
f 203/1/2 204/1/2 205/1/2
f 205/1/2 204/1/2 206/1/2
f 206/1/2 204/1/2 207/1/2
f 207/1/2 204/1/2 208/1/2
f 206/2/2 207/2/2 209/2/2
f 209/2/2 207/2/2 210/2/2
f 211/2/2 212/2/2 215/2/2
f 215/2/2 212/2/2 216/2/2
f 213/2/2 214/2/2 219/2/2
f 219/2/2 214/2/2 220/2/2
f 217/2/2 218/2/2 221/2/2
f 221/2/2 218/2/2 222/2/2
f 223/2/2 224/2/2 225/2/2
f 225/2/2 224/2/2 226/2/2
f 227/3/2 228/3/2 229/3/2
f 229/3/2 228/3/2 230/3/2
f 229/1/2 230/1/2 231/1/2
f 231/1/2 230/1/2 232/1/2
f 229/1/2 231/1/2 233/1/2
f 232/1/2 230/1/2 234/1/2
f 227/3/2 229/3/2 235/3/2
f 233/1/2 234/1/2 235/1/2
f 229/1/2 233/1/2 235/1/2
f 234/1/2 230/1/2 236/1/2
f 235/1/2 234/1/2 236/1/2
f 230/3/2 228/3/2 236/3/2
f 227/3/2 235/3/2 237/3/2
f 235/3/2 236/3/2 237/3/2
f 236/3/2 228/3/2 238/3/2
f 237/3/2 236/3/2 238/3/2
f 239/3/2 240/3/2 241/3/2
f 241/3/2 240/3/2 242/3/2
f 239/3/2 241/3/2 243/3/2
f 242/3/2 240/3/2 244/3/2
f 239/3/2 243/3/2 245/3/2
f 243/3/2 244/3/2 245/3/2
f 244/3/2 240/3/2 246/3/2
f 245/3/2 244/3/2 246/3/2
f 247/1/2 248/1/2 249/1/2
f 249/1/2 248/1/2 250/1/2
f 253/3/3 252/3/3 251/3/3
f 254/3/3 252/3/3 253/3/3
f 258/3/3 253/3/3 251/3/3
f 259/1/3 256/1/3 255/1/3
f 260/1/3 256/1/3 259/1/3
f 261/2/3 258/2/3 257/2/3
f 262/3/3 253/3/3 258/3/3
f 262/2/3 258/2/3 261/2/3
f 263/1/3 254/1/3 253/1/3
f 263/3/3 253/3/3 262/3/3
f 264/3/3 252/3/3 254/3/3
f 264/1/3 254/1/3 263/1/3
f 265/3/3 263/3/3 262/3/3
f 265/3/3 264/3/3 263/3/3
f 266/3/3 252/3/3 264/3/3
f 266/3/3 264/3/3 265/3/3
f 271/1/3 268/1/3 267/1/3
f 272/1/3 268/1/3 271/1/3
f 274/2/3 270/2/3 269/2/3
f 275/2/3 270/2/3 274/2/3
f 278/2/3 277/2/3 276/2/3
f 279/2/3 277/2/3 278/2/3
f 280/2/3 278/2/3 276/2/3
f 281/2/3 278/2/3 280/2/3
f 284/1/3 283/1/3 282/1/3
f 285/1/3 283/1/3 284/1/3
f 286/2/3 274/2/3 273/2/3
f 287/2/3 274/2/3 286/2/3
f 289/2/3 288/2/3 287/2/3
f 290/2/3 288/2/3 289/2/3
f 293/1/3 292/1/3 291/1/3
f 294/1/3 292/1/3 293/1/3
f 296/2/3 295/2/3 294/2/3
f 298/2/3 296/2/3 294/2/3
f 298/2/3 297/2/3 296/2/3
f 299/2/3 297/2/3 298/2/3
f 301/2/3 297/2/3 299/2/3
f 303/2/3 301/2/3 300/2/3
f 304/2/3 303/2/3 302/2/3
f 305/2/3 297/2/3 301/2/3
f 305/2/3 303/2/3 304/2/3
f 305/2/3 301/2/3 303/2/3
f 308/1/3 307/1/3 306/1/3
f 309/1/3 307/1/3 308/1/3
f 312/3/3 311/3/3 310/3/3
f 313/3/3 311/3/3 312/3/3
f 319/2/3 315/2/3 314/2/3
f 320/2/3 315/2/3 319/2/3
f 321/2/3 315/2/3 320/2/3
f 322/2/3 317/2/3 316/2/3
f 323/2/3 317/2/3 322/2/3
f 324/2/3 319/2/3 318/2/3
f 324/2/3 320/2/3 319/2/3
f 325/2/3 320/2/3 324/2/3
f 328/2/3 327/2/3 326/2/3
f 329/2/3 327/2/3 328/2/3
f 332/2/3 331/2/3 330/2/3
f 333/2/3 331/2/3 332/2/3
f 336/1/3 335/1/3 334/1/3
f 337/1/3 335/1/3 336/1/3
f 341/2/3 339/2/3 338/2/3
f 342/2/3 339/2/3 341/2/3
f 343/2/3 341/2/3 340/2/3
f 344/2/3 341/2/3 343/2/3
f 351/2/3 346/2/3 345/2/3
f 352/2/3 346/2/3 351/2/3
f 353/2/3 348/2/3 347/2/3
f 354/2/3 348/2/3 353/2/3
f 356/2/3 350/2/3 349/2/3
f 357/2/3 350/2/3 356/2/3
f 358/2/3 355/2/3 354/2/3
f 359/2/3 355/2/3 358/2/3
f 362/4/3 361/4/3 360/4/3
f 363/4/3 361/4/3 362/4/3
f 366/3/3 365/3/3 364/3/3
f 367/3/3 365/3/3 366/3/3
f 370/1/3 369/1/3 368/1/3
f 371/1/3 369/1/3 370/1/3
f 372/1/3 369/1/3 371/1/3
f 373/1/3 369/1/3 372/1/3
f 374/3/4 375/3/4 376/3/4
f 376/3/4 375/3/4 377/3/4
f 378/1/4 379/1/4 380/1/4
f 380/1/4 379/1/4 381/1/4
f 381/1/4 379/1/4 382/1/4
f 382/1/4 379/1/4 383/1/4
f 384/4/4 385/4/4 386/4/4
f 386/4/4 385/4/4 387/4/4
f 388/2/4 389/2/4 391/2/4
f 391/2/4 389/2/4 392/2/4
f 390/2/4 391/2/4 393/2/4
f 393/2/4 391/2/4 394/2/4
f 395/2/4 396/2/4 401/2/4
f 401/2/4 396/2/4 402/2/4
f 397/2/4 398/2/4 403/2/4
f 403/2/4 398/2/4 404/2/4
f 399/2/4 400/2/4 406/2/4
f 406/2/4 400/2/4 407/2/4
f 404/2/4 405/2/4 408/2/4
f 408/2/4 405/2/4 409/2/4
f 410/2/4 411/2/4 415/2/4
f 415/2/4 411/2/4 416/2/4
f 416/2/4 411/2/4 417/2/4
f 412/2/4 413/2/4 418/2/4
f 418/2/4 413/2/4 419/2/4
f 414/2/4 415/2/4 420/2/4
f 415/2/4 416/2/4 420/2/4
f 420/2/4 416/2/4 421/2/4
f 422/2/4 423/2/4 425/2/4
f 425/2/4 423/2/4 426/2/4
f 424/2/4 425/2/4 427/2/4
f 425/2/4 426/2/4 427/2/4
f 427/2/4 426/2/4 428/2/4
f 429/2/4 430/2/4 431/2/4
f 431/2/4 430/2/4 432/2/4
f 433/1/4 434/1/4 435/1/4
f 435/1/4 434/1/4 436/1/4
f 437/1/4 438/1/4 439/1/4
f 439/1/4 438/1/4 440/1/4
f 440/2/4 441/2/4 442/2/4
f 442/2/4 441/2/4 443/2/4
f 443/2/4 444/2/4 445/2/4
f 445/2/4 444/2/4 446/2/4
f 446/2/4 444/2/4 448/2/4
f 447/2/4 448/2/4 450/2/4
f 448/2/4 444/2/4 451/2/4
f 450/2/4 448/2/4 451/2/4
f 449/2/4 450/2/4 452/2/4
f 452/2/4 450/2/4 453/2/4
f 451/2/4 444/2/4 454/2/4
f 454/2/4 444/2/4 455/2/4
f 456/1/4 457/1/4 458/1/4
f 458/1/4 457/1/4 459/1/4
f 460/3/4 461/3/4 462/3/4
f 462/3/4 461/3/4 463/3/4
f 464/1/4 465/1/4 468/1/4
f 468/1/4 465/1/4 469/1/4
f 466/2/4 467/2/4 472/2/4
f 472/2/4 467/2/4 473/2/4
f 469/2/4 470/2/4 474/2/4
f 469/2/4 474/2/4 476/2/4
f 474/2/4 475/2/4 476/2/4
f 476/2/4 475/2/4 477/2/4
f 469/2/4 476/2/4 478/2/4
f 478/2/4 476/2/4 479/2/4
f 480/1/4 481/1/4 482/1/4
f 482/1/4 481/1/4 483/1/4
f 471/2/4 472/2/4 484/2/4
f 484/2/4 472/2/4 485/2/4
f 485/2/4 486/2/4 487/2/4
f 487/2/4 486/2/4 488/2/4
f 489/3/4 490/3/4 491/3/4
f 491/3/4 490/3/4 492/3/4
f 489/3/4 491/3/4 496/3/4
f 493/1/4 494/1/4 497/1/4
f 497/1/4 494/1/4 498/1/4
f 495/2/4 496/2/4 499/2/4
f 496/3/4 491/3/4 500/3/4
f 499/2/4 496/2/4 500/2/4
f 491/1/4 492/1/4 501/1/4
f 500/3/4 491/3/4 501/3/4
f 492/3/4 490/3/4 502/3/4
f 501/1/4 492/1/4 502/1/4
f 500/3/4 501/3/4 503/3/4
f 501/3/4 502/3/4 503/3/4
f 502/3/4 490/3/4 504/3/4
f 503/3/4 502/3/4 504/3/4
f 508/1/5 506/1/5 505/1/5
f 509/1/5 506/1/5 508/1/5
f 512/1/5 508/1/5 507/1/5
f 512/1/5 510/1/5 509/1/5
f 512/1/5 509/1/5 508/1/5
f 513/1/5 510/1/5 512/1/5
f 515/1/5 512/1/5 511/1/5
f 515/1/5 514/1/5 513/1/5
f 515/1/5 513/1/5 512/1/5
f 516/1/5 514/1/5 515/1/5
f 517/1/5 515/1/5 511/1/5
f 517/2/5 516/2/5 515/2/5
f 518/1/5 514/1/5 516/1/5
f 518/2/5 516/2/5 517/2/5
f 519/1/5 517/1/5 511/1/5
f 519/1/5 518/1/5 517/1/5
f 520/1/5 518/1/5 519/1/5
f 521/1/5 514/1/5 518/1/5
f 521/1/5 518/1/5 520/1/5
f 522/1/5 514/1/5 521/1/5
f 523/1/5 521/1/5 520/1/5
f 524/1/5 521/1/5 523/1/5
f 525/1/5 521/1/5 524/1/5
f 526/1/5 521/1/5 525/1/5
f 527/1/5 525/1/5 524/1/5
f 528/1/5 525/1/5 527/1/5
f 531/2/5 530/2/5 529/2/5
f 532/2/5 530/2/5 531/2/5
f 536/2/5 534/2/5 533/2/5
f 537/2/5 534/2/5 536/2/5
f 538/2/5 536/2/5 535/2/5
f 539/2/5 536/2/5 538/2/5
f 541/2/5 540/2/5 539/2/5
f 542/2/5 540/2/5 541/2/5
f 545/2/5 544/2/5 543/2/5
f 546/2/5 544/2/5 545/2/5
f 551/2/5 548/2/5 547/2/5
f 552/2/5 548/2/5 551/2/5
f 553/2/5 550/2/5 549/2/5
f 554/2/5 550/2/5 553/2/5
f 557/2/5 556/2/5 555/2/5
f 558/2/5 556/2/5 557/2/5
f 559/2/5 556/2/5 558/2/5
f 560/2/5 556/2/5 559/2/5
f 563/2/5 561/2/5 560/2/5
f 564/2/5 561/2/5 563/2/5
f 566/2/5 563/2/5 562/2/5
f 567/2/5 566/2/5 565/2/5
f 568/2/5 563/2/5 566/2/5
f 568/2/5 566/2/5 567/2/5
f 572/2/5 570/2/5 569/2/5
f 573/2/5 570/2/5 572/2/5
f 575/2/5 572/2/5 571/2/5
f 576/2/5 572/2/5 575/2/5
f 577/2/5 574/2/5 573/2/5
f 579/2/5 578/2/5 577/2/5
f 579/2/5 577/2/5 573/2/5
f 580/2/5 578/2/5 579/2/5
f 582/2/5 578/2/5 580/2/5
f 585/2/5 578/2/5 582/2/5
f 585/2/5 582/2/5 581/2/5
f 586/2/5 578/2/5 585/2/5
f 587/2/5 584/2/5 583/2/5
f 588/2/5 584/2/5 587/2/5
f 589/2/5 585/2/5 581/2/5
f 590/2/5 585/2/5 589/2/5
f 591/2/5 589/2/5 588/2/5
f 592/2/5 589/2/5 591/2/5
f 597/3/5 594/3/5 593/3/5
f 598/3/5 594/3/5 597/3/5
f 599/3/5 596/3/5 595/3/5
f 600/3/5 596/3/5 599/3/5
f 601/3/5 597/3/5 593/3/5
f 602/3/5 597/3/5 601/3/5
f 603/3/5 596/3/5 600/3/5
f 604/3/5 596/3/5 603/3/5
f 605/3/5 601/3/5 593/3/5
f 608/3/5 596/3/5 604/3/5
f 609/3/5 606/3/5 605/3/5
f 612/3/5 608/3/5 607/3/5
f 613/3/5 610/3/5 609/3/5
f 613/3/5 605/3/5 593/3/5
f 613/3/5 609/3/5 605/3/5
f 614/3/5 610/3/5 613/3/5
f 615/3/5 612/3/5 611/3/5
f 616/3/5 608/3/5 612/3/5
f 616/3/5 612/3/5 615/3/5
f 616/3/5 596/3/5 608/3/5
f 619/3/5 618/3/5 617/3/5
f 620/3/5 618/3/5 619/3/5
f 623/1/5 622/1/5 621/1/5
f 624/1/5 622/1/5 623/1/5
f 627/4/5 626/4/5 625/4/5
f 628/4/5 626/4/5 627/4/5
f 633/3/5 630/3/5 629/3/5
f 634/3/5 630/3/5 633/3/5
f 635/3/5 632/3/5 631/3/5
f 636/3/5 632/3/5 635/3/5
f 637/1/6 638/1/6 640/1/6
f 640/1/6 638/1/6 641/1/6
f 641/1/6 638/1/6 642/1/6
f 642/1/6 638/1/6 643/1/6
f 639/1/6 640/1/6 646/1/6
f 640/1/6 641/1/6 646/1/6
f 646/1/6 641/1/6 647/1/6
f 642/1/6 643/1/6 648/1/6
f 643/1/6 644/1/6 648/1/6
f 648/1/6 644/1/6 649/1/6
f 649/1/6 644/1/6 650/1/6
f 650/1/6 651/1/6 652/1/6
f 649/1/6 650/1/6 652/1/6
f 652/1/6 651/1/6 653/1/6
f 653/1/6 651/1/6 654/1/6
f 654/1/6 651/1/6 655/1/6
f 656/1/6 657/1/6 659/1/6
f 645/1/6 646/1/6 660/1/6
f 660/1/6 646/1/6 661/1/6
f 658/1/6 659/1/6 664/1/6
f 659/1/6 657/1/6 665/1/6
f 664/1/6 659/1/6 665/1/6
f 665/1/6 657/1/6 666/1/6
f 661/1/6 662/1/6 667/1/6
f 667/1/6 662/1/6 668/1/6
f 663/1/6 664/1/6 669/1/6
f 664/1/6 665/1/6 669/1/6
f 669/1/6 665/1/6 670/1/6
f 670/1/6 665/1/6 671/1/6
f 668/1/6 669/1/6 672/1/6
f 669/1/6 670/1/6 672/1/6
f 672/1/6 670/1/6 673/1/6
f 674/2/6 675/2/6 678/2/6
f 678/2/6 675/2/6 679/2/6
f 676/2/6 677/2/6 680/2/6
f 680/2/6 677/2/6 681/2/6
f 682/2/6 683/2/6 684/2/6
f 684/2/6 683/2/6 685/2/6
f 686/2/6 687/2/6 690/2/6
f 690/2/6 687/2/6 691/2/6
f 688/2/6 689/2/6 694/2/6
f 694/2/6 689/2/6 695/2/6
f 691/2/6 692/2/6 696/2/6
f 696/2/6 692/2/6 697/2/6
f 693/2/6 694/2/6 698/2/6
f 698/2/6 694/2/6 699/2/6
f 700/2/6 701/2/6 702/2/6
f 702/2/6 701/2/6 703/2/6
f 704/2/6 705/2/6 708/2/6
f 708/2/6 705/2/6 709/2/6
f 706/2/6 707/2/6 710/2/6
f 710/2/6 707/2/6 711/2/6
f 712/2/6 713/2/6 716/2/6
f 716/2/6 713/2/6 717/2/6
f 714/2/6 715/2/6 718/2/6
f 718/2/6 715/2/6 719/2/6
f 720/2/6 721/2/6 722/2/6
f 722/2/6 721/2/6 723/2/6
f 724/2/6 725/2/6 726/2/6
f 726/2/6 725/2/6 727/2/6
f 728/3/6 729/3/6 730/3/6
f 730/3/6 729/3/6 731/3/6
f 732/4/6 733/4/6 734/4/6
f 734/4/6 733/4/6 735/4/6
f 736/4/6 737/4/6 738/4/6
f 738/4/6 737/4/6 739/4/6
f 740/1/6 741/1/6 742/1/6
f 742/1/6 741/1/6 743/1/6
f 744/1/6 745/1/6 746/1/6
f 746/1/6 745/1/6 747/1/6
f 748/3/6 749/3/6 750/3/6
f 750/3/6 749/3/6 751/3/6
f 752/3/6 753/3/6 754/3/6
f 754/3/6 753/3/6 755/3/6
