# MagicaVoxel @ Ephtracy

# group
o 

# material
mtllib o.mtl
usemtl palette

# normals
vn -1 0 0
vn 1 0 0
vn 0 0 1
vn 0 0 -1
vn 0 -1 0
vn 0 1 0

# texcoords
vt 0.0214844 0.5
vt 0.0605469 0.5
vt 0.537109 0.5
vt 0.806641 0.5
vt 0.939453 0.5
vt 0.958984 0.5
vt 0.994141 0.5

# verts
v 1 3.2 -2
v 1 3.2 -2.2
v 1 3.4 -2
v 1 3.4 -2.2
v 1.5 2 -1.9
v 1.5 2 -2.2
v 1.5 2.1 -1.9
v 1.5 2.1 -2
v 1.5 2.1 -2.2
v 1.5 2.7 -2
v 1.5 2.7 -2.2
v 1.5 2.8 -2
v 1.5 2.8 -2.2
v 1.5 2.9 -2
v 1.5 2.9 -2.2
v 1.5 3 -2
v 1.5 3 -2.2
v 1.5 3.1 -2
v 1.5 3.1 -2.2
v 1.5 3.2 -2
v 1.5 3.2 -2.2
v 1.5 3.4 -1.9
v 1.5 3.4 -2
v 1.5 3.4 -2.2
v 1.5 3.4 -2.3
v 1.5 3.5 -1.9
v 1.5 3.5 -2.2
v 1.5 3.6 -1.9
v 1.5 3.6 -2
v 1.5 3.7 -1.9
v 1.5 3.7 -2
v 1.5 3.7 -2.1
v 1.5 3.7 -2.2
v 1.5 3.8 -1.9
v 1.5 3.8 -2.1
v 1.5 3.9 -1.9
v 1.5 3.9 -2
v 1.5 3.9 -2.2
v 1.5 3.9 -2.3
v 1.5 4 -2
v 1.5 4 -2.2
v 1.6 3.3 -2.2
v 1.6 3.3 -2.3
v 1.6 3.4 -2.2
v 1.6 3.4 -2.3
v 1.6 3.4 -2.4
v 1.6 3.8 -2.3
v 1.6 3.8 -2.4
v 1.6 3.9 -1.9
v 1.6 3.9 -2
v 1.6 3.9 -2.2
v 1.6 3.9 -2.3
v 1.6 4 -1.9
v 1.6 4 -2
v 1.6 4 -2.2
v 1.6 4 -2.3
v 1.7 3.2 -2.2
v 1.7 3.2 -2.3
v 1.7 3.3 -2.2
v 1.7 3.3 -2.3
v 1.7 3.3 -2.4
v 1.7 3.4 -2.3
v 1.7 3.4 -2.4
v 1.7 3.8 -2.3
v 1.7 3.8 -2.4
v 1.7 3.9 -2.3
v 1.7 3.9 -2.4
v 1.8 2 -1.9
v 1.8 2 -2.2
v 1.8 2.1 -1.9
v 1.8 2.1 -2
v 1.8 2.1 -2.2
v 1.8 2.5 -2
v 1.8 2.5 -2.2
v 1.7 2 -1.9
v 1.7 2 -2.2
v 1.7 2.1 -1.9
v 1.7 2.1 -2
v 1.7 2.1 -2.2
v 1.7 2.5 -2
v 1.7 2.5 -2.2
v 1.8 3.2 -2.2
v 1.8 3.2 -2.3
v 1.8 3.3 -2.2
v 1.8 3.3 -2.3
v 1.8 3.3 -2.4
v 1.8 3.4 -2.3
v 1.8 3.4 -2.4
v 1.8 3.8 -2.3
v 1.8 3.8 -2.4
v 1.8 3.9 -2.3
v 1.8 3.9 -2.4
v 1.9 3.3 -2.2
v 1.9 3.3 -2.3
v 1.9 3.4 -2.2
v 1.9 3.4 -2.3
v 1.9 3.4 -2.4
v 1.9 3.8 -2.3
v 1.9 3.8 -2.4
v 1.9 3.9 -1.9
v 1.9 3.9 -2
v 1.9 3.9 -2.2
v 1.9 3.9 -2.3
v 1.9 4 -1.9
v 1.9 4 -2
v 1.9 4 -2.2
v 1.9 4 -2.3
v 2 2 -1.9
v 2 2 -2.2
v 2 2.1 -1.9
v 2 2.1 -2
v 2 2.1 -2.2
v 2 2.7 -2
v 2 2.7 -2.2
v 2 2.8 -2
v 2 2.8 -2.2
v 2 2.9 -2
v 2 2.9 -2.2
v 2 3 -2
v 2 3 -2.2
v 2 3.1 -2
v 2 3.1 -2.2
v 2 3.2 -2
v 2 3.2 -2.2
v 2 3.4 -1.9
v 2 3.4 -2
v 2 3.4 -2.2
v 2 3.4 -2.3
v 2 3.5 -1.9
v 2 3.5 -2.2
v 2 3.6 -1.9
v 2 3.6 -2
v 2 3.7 -1.9
v 2 3.7 -2
v 2 3.7 -2.1
v 2 3.7 -2.2
v 2 3.8 -1.9
v 2 3.8 -2.1
v 2 3.9 -1.9
v 2 3.9 -2
v 2 3.9 -2.2
v 2 3.9 -2.3
v 2 4 -2
v 2 4 -2.2
v 2.5 3.2 -2
v 2.5 3.2 -2.2
v 2.5 3.4 -2
v 2.5 3.4 -2.2
v 1.5 2 -1.9
v 1.5 2.1 -1.9
v 1.5 3.4 -1.9
v 1.5 3.5 -1.9
v 1.5 3.6 -1.9
v 1.5 3.7 -1.9
v 1.5 3.8 -1.9
v 1.5 3.9 -1.9
v 1.6 3.5 -1.9
v 1.6 3.6 -1.9
v 1.6 3.7 -1.9
v 1.6 3.9 -1.9
v 1.6 4 -1.9
v 1.7 2 -1.9
v 1.7 2.1 -1.9
v 1.7 3.4 -1.9
v 1.7 3.5 -1.9
v 1.7 3.6 -1.9
v 1.7 3.7 -1.9
v 1.8 2 -1.9
v 1.8 2.1 -1.9
v 1.8 3.4 -1.9
v 1.8 3.5 -1.9
v 1.8 3.6 -1.9
v 1.8 3.7 -1.9
v 1.9 3.5 -1.9
v 1.9 3.6 -1.9
v 1.9 3.7 -1.9
v 1.9 3.9 -1.9
v 1.9 4 -1.9
v 2 2 -1.9
v 2 2.1 -1.9
v 2 3.4 -1.9
v 2 3.5 -1.9
v 2 3.6 -1.9
v 2 3.7 -1.9
v 2 3.8 -1.9
v 2 3.9 -1.9
v 1 3.2 -2
v 1 3.4 -2
v 1.1 3.2 -2
v 1.1 3.3 -2
v 1.1 3.4 -2
v 1.2 3.2 -2
v 1.2 3.3 -2
v 1.2 3.4 -2
v 1.3 3.2 -2
v 1.3 3.3 -2
v 1.3 3.4 -2
v 1.4 3.2 -2
v 1.4 3.3 -2
v 1.4 3.4 -2
v 1.5 2.1 -2
v 1.5 2.7 -2
v 1.5 2.8 -2
v 1.5 2.9 -2
v 1.5 3 -2
v 1.5 3.1 -2
v 1.5 3.2 -2
v 1.5 3.3 -2
v 1.5 3.4 -2
v 1.5 3.9 -2
v 1.5 4 -2
v 1.6 2.7 -2
v 1.6 2.8 -2
v 1.6 2.9 -2
v 1.6 3 -2
v 1.6 3.1 -2
v 1.6 3.2 -2
v 1.6 3.3 -2
v 1.6 3.4 -2
v 1.6 3.9 -2
v 1.6 4 -2
v 1.7 2.1 -2
v 1.7 2.5 -2
v 1.7 2.7 -2
v 1.7 2.8 -2
v 1.7 2.9 -2
v 1.7 3 -2
v 1.7 3.1 -2
v 1.7 3.2 -2
v 1.7 3.3 -2
v 1.7 3.4 -2
v 1.8 2.1 -2
v 1.8 2.5 -2
v 1.8 2.7 -2
v 1.8 2.8 -2
v 1.8 2.9 -2
v 1.8 3 -2
v 1.8 3.1 -2
v 1.8 3.2 -2
v 1.8 3.3 -2
v 1.8 3.4 -2
v 1.9 2.7 -2
v 1.9 2.8 -2
v 1.9 2.9 -2
v 1.9 3 -2
v 1.9 3.1 -2
v 1.9 3.2 -2
v 1.9 3.3 -2
v 1.9 3.4 -2
v 1.9 3.9 -2
v 1.9 4 -2
v 2 2.1 -2
v 2 2.7 -2
v 2 2.8 -2
v 2 2.9 -2
v 2 3 -2
v 2 3.1 -2
v 2 3.2 -2
v 2 3.3 -2
v 2 3.4 -2
v 2 3.9 -2
v 2 4 -2
v 2.1 3.2 -2
v 2.1 3.3 -2
v 2.1 3.4 -2
v 2.2 3.2 -2
v 2.2 3.3 -2
v 2.2 3.4 -2
v 2.3 3.2 -2
v 2.3 3.3 -2
v 2.3 3.4 -2
v 2.4 3.2 -2
v 2.4 3.3 -2
v 2.4 3.4 -2
v 2.5 3.2 -2
v 2.5 3.4 -2
v 1 3.2 -2.2
v 1 3.4 -2.2
v 1.1 3.2 -2.2
v 1.1 3.3 -2.2
v 1.1 3.4 -2.2
v 1.2 3.2 -2.2
v 1.2 3.3 -2.2
v 1.2 3.4 -2.2
v 1.3 3.2 -2.2
v 1.3 3.3 -2.2
v 1.3 3.4 -2.2
v 1.4 3.2 -2.2
v 1.4 3.3 -2.2
v 1.4 3.4 -2.2
v 1.5 2 -2.2
v 1.5 2.1 -2.2
v 1.5 2.7 -2.2
v 1.5 2.8 -2.2
v 1.5 2.9 -2.2
v 1.5 3 -2.2
v 1.5 3.1 -2.2
v 1.5 3.2 -2.2
v 1.5 3.3 -2.2
v 1.5 3.4 -2.2
v 1.5 3.9 -2.2
v 1.5 4 -2.2
v 1.6 2.7 -2.2
v 1.6 2.8 -2.2
v 1.6 2.9 -2.2
v 1.6 3 -2.2
v 1.6 3.1 -2.2
v 1.6 3.2 -2.2
v 1.6 3.3 -2.2
v 1.6 3.4 -2.2
v 1.6 3.9 -2.2
v 1.6 4 -2.2
v 1.7 2 -2.2
v 1.7 2.1 -2.2
v 1.7 2.5 -2.2
v 1.7 2.7 -2.2
v 1.7 2.8 -2.2
v 1.7 2.9 -2.2
v 1.7 3 -2.2
v 1.7 3.1 -2.2
v 1.7 3.2 -2.2
v 1.7 3.3 -2.2
v 1.8 2 -2.2
v 1.8 2.1 -2.2
v 1.8 2.5 -2.2
v 1.8 2.7 -2.2
v 1.8 2.8 -2.2
v 1.8 2.9 -2.2
v 1.8 3 -2.2
v 1.8 3.1 -2.2
v 1.8 3.2 -2.2
v 1.8 3.3 -2.2
v 1.9 2.7 -2.2
v 1.9 2.8 -2.2
v 1.9 2.9 -2.2
v 1.9 3 -2.2
v 1.9 3.1 -2.2
v 1.9 3.2 -2.2
v 1.9 3.3 -2.2
v 1.9 3.4 -2.2
v 1.9 3.9 -2.2
v 1.9 4 -2.2
v 2 2 -2.2
v 2 2.1 -2.2
v 2 2.7 -2.2
v 2 2.8 -2.2
v 2 2.9 -2.2
v 2 3 -2.2
v 2 3.1 -2.2
v 2 3.2 -2.2
v 2 3.3 -2.2
v 2 3.4 -2.2
v 2 3.9 -2.2
v 2 4 -2.2
v 2.1 3.2 -2.2
v 2.1 3.3 -2.2
v 2.1 3.4 -2.2
v 2.2 3.2 -2.2
v 2.2 3.3 -2.2
v 2.2 3.4 -2.2
v 2.3 3.2 -2.2
v 2.3 3.3 -2.2
v 2.3 3.4 -2.2
v 2.4 3.2 -2.2
v 2.4 3.3 -2.2
v 2.4 3.4 -2.2
v 2.5 3.2 -2.2
v 2.5 3.4 -2.2
v 1.5 3.4 -2.3
v 1.5 3.9 -2.3
v 1.6 3.3 -2.3
v 1.6 3.4 -2.3
v 1.6 3.8 -2.3
v 1.6 3.9 -2.3
v 1.6 4 -2.3
v 1.7 3.2 -2.3
v 1.7 3.3 -2.3
v 1.7 3.4 -2.3
v 1.7 3.8 -2.3
v 1.7 3.9 -2.3
v 1.8 3.2 -2.3
v 1.8 3.3 -2.3
v 1.8 3.4 -2.3
v 1.8 3.8 -2.3
v 1.8 3.9 -2.3
v 1.9 3.3 -2.3
v 1.9 3.4 -2.3
v 1.9 3.8 -2.3
v 1.9 3.9 -2.3
v 1.9 4 -2.3
v 2 3.4 -2.3
v 2 3.9 -2.3
v 1.6 3.4 -2.4
v 1.6 3.8 -2.4
v 1.7 3.3 -2.4
v 1.7 3.4 -2.4
v 1.7 3.8 -2.4
v 1.7 3.9 -2.4
v 1.8 3.3 -2.4
v 1.8 3.4 -2.4
v 1.8 3.8 -2.4
v 1.8 3.9 -2.4
v 1.9 3.4 -2.4
v 1.9 3.8 -2.4
v 1.5 2 -1.9
v 1.7 2 -1.9
v 1.8 2 -1.9
v 2 2 -1.9
v 1.5 2 -2.2
v 1.7 2 -2.2
v 1.8 2 -2.2
v 2 2 -2.2
v 1.7 2.5 -2
v 1.8 2.5 -2
v 1.7 2.5 -2.2
v 1.8 2.5 -2.2
v 1 3.2 -2
v 1.1 3.2 -2
v 1.2 3.2 -2
v 1.3 3.2 -2
v 1.4 3.2 -2
v 1.5 3.2 -2
v 2 3.2 -2
v 2.1 3.2 -2
v 2.2 3.2 -2
v 2.3 3.2 -2
v 2.4 3.2 -2
v 2.5 3.2 -2
v 1 3.2 -2.2
v 1.1 3.2 -2.2
v 1.2 3.2 -2.2
v 1.3 3.2 -2.2
v 1.4 3.2 -2.2
v 1.5 3.2 -2.2
v 1.7 3.2 -2.2
v 1.8 3.2 -2.2
v 2 3.2 -2.2
v 2.1 3.2 -2.2
v 2.2 3.2 -2.2
v 2.3 3.2 -2.2
v 2.4 3.2 -2.2
v 2.5 3.2 -2.2
v 1.7 3.2 -2.3
v 1.8 3.2 -2.3
v 1.6 3.3 -2.2
v 1.7 3.3 -2.2
v 1.8 3.3 -2.2
v 1.9 3.3 -2.2
v 1.6 3.3 -2.3
v 1.7 3.3 -2.3
v 1.8 3.3 -2.3
v 1.9 3.3 -2.3
v 1.7 3.3 -2.4
v 1.8 3.3 -2.4
v 1.5 3.4 -1.9
v 1.7 3.4 -1.9
v 1.8 3.4 -1.9
v 2 3.4 -1.9
v 1.5 3.4 -2
v 1.6 3.4 -2
v 1.7 3.4 -2
v 1.8 3.4 -2
v 1.9 3.4 -2
v 2 3.4 -2
v 1.5 3.4 -2.2
v 1.6 3.4 -2.2
v 1.9 3.4 -2.2
v 2 3.4 -2.2
v 1.5 3.4 -2.3
v 1.6 3.4 -2.3
v 1.7 3.4 -2.3
v 1.8 3.4 -2.3
v 1.9 3.4 -2.3
v 2 3.4 -2.3
v 1.6 3.4 -2.4
v 1.7 3.4 -2.4
v 1.8 3.4 -2.4
v 1.9 3.4 -2.4
v 1.5 2.1 -1.9
v 1.7 2.1 -1.9
v 1.8 2.1 -1.9
v 2 2.1 -1.9
v 1.5 2.1 -2
v 1.7 2.1 -2
v 1.8 2.1 -2
v 2 2.1 -2
v 1 3.4 -2
v 1.1 3.4 -2
v 1.2 3.4 -2
v 1.3 3.4 -2
v 1.4 3.4 -2
v 1.5 3.4 -2
v 2 3.4 -2
v 2.1 3.4 -2
v 2.2 3.4 -2
v 2.3 3.4 -2
v 2.4 3.4 -2
v 2.5 3.4 -2
v 1 3.4 -2.2
v 1.1 3.4 -2.2
v 1.2 3.4 -2.2
v 1.3 3.4 -2.2
v 1.4 3.4 -2.2
v 1.5 3.4 -2.2
v 2 3.4 -2.2
v 2.1 3.4 -2.2
v 2.2 3.4 -2.2
v 2.3 3.4 -2.2
v 2.4 3.4 -2.2
v 2.5 3.4 -2.2
v 1.6 3.8 -2.3
v 1.7 3.8 -2.3
v 1.8 3.8 -2.3
v 1.9 3.8 -2.3
v 1.6 3.8 -2.4
v 1.7 3.8 -2.4
v 1.8 3.8 -2.4
v 1.9 3.8 -2.4
v 1.5 3.9 -1.9
v 1.6 3.9 -1.9
v 1.9 3.9 -1.9
v 2 3.9 -1.9
v 1.5 3.9 -2
v 1.6 3.9 -2
v 1.9 3.9 -2
v 2 3.9 -2
v 1.5 3.9 -2.2
v 1.6 3.9 -2.2
v 1.9 3.9 -2.2
v 2 3.9 -2.2
v 1.5 3.9 -2.3
v 1.6 3.9 -2.3
v 1.7 3.9 -2.3
v 1.8 3.9 -2.3
v 1.9 3.9 -2.3
v 2 3.9 -2.3
v 1.7 3.9 -2.4
v 1.8 3.9 -2.4
v 1.6 4 -1.9
v 1.9 4 -1.9
v 1.5 4 -2
v 1.6 4 -2
v 1.9 4 -2
v 2 4 -2
v 1.5 4 -2.2
v 1.6 4 -2.2
v 1.9 4 -2.2
v 2 4 -2.2
v 1.6 4 -2.3
v 1.9 4 -2.3

# faces
f 3/2/1 2/2/1 1/2/1
f 4/2/1 2/2/1 3/2/1
f 7/3/1 6/3/1 5/3/1
f 8/3/1 6/3/1 7/3/1
f 9/3/1 6/3/1 8/3/1
f 10/5/1 9/5/1 8/5/1
f 11/5/1 9/5/1 10/5/1
f 12/1/1 11/1/1 10/1/1
f 13/1/1 11/1/1 12/1/1
f 14/4/1 13/4/1 12/4/1
f 15/4/1 13/4/1 14/4/1
f 16/1/1 15/1/1 14/1/1
f 17/1/1 15/1/1 16/1/1
f 18/4/1 17/4/1 16/4/1
f 19/4/1 17/4/1 18/4/1
f 20/1/1 19/1/1 18/1/1
f 21/1/1 19/1/1 20/1/1
f 26/3/1 24/3/1 23/3/1
f 26/3/1 25/3/1 24/3/1
f 26/3/1 23/3/1 22/3/1
f 27/3/1 25/3/1 26/3/1
f 28/2/1 27/2/1 26/2/1
f 29/2/1 27/2/1 28/2/1
f 30/7/1 29/7/1 28/7/1
f 31/2/1 27/2/1 29/2/1
f 31/7/1 29/7/1 30/7/1
f 32/2/1 27/2/1 31/2/1
f 33/3/1 25/3/1 27/3/1
f 33/2/1 27/2/1 32/2/1
f 34/2/1 32/2/1 31/2/1
f 34/2/1 31/2/1 30/2/1
f 35/3/1 33/3/1 32/3/1
f 35/2/1 32/2/1 34/2/1
f 36/3/1 35/3/1 34/3/1
f 37/3/1 35/3/1 36/3/1
f 38/3/1 25/3/1 33/3/1
f 38/3/1 35/3/1 37/3/1
f 38/3/1 33/3/1 35/3/1
f 39/3/1 25/3/1 38/3/1
f 40/3/1 38/3/1 37/3/1
f 41/3/1 38/3/1 40/3/1
f 44/3/1 43/3/1 42/3/1
f 45/3/1 43/3/1 44/3/1
f 47/3/1 46/3/1 45/3/1
f 48/3/1 46/3/1 47/3/1
f 53/3/1 50/3/1 49/3/1
f 54/3/1 50/3/1 53/3/1
f 55/3/1 52/3/1 51/3/1
f 56/3/1 52/3/1 55/3/1
f 59/3/1 58/3/1 57/3/1
f 60/3/1 58/3/1 59/3/1
f 62/3/1 61/3/1 60/3/1
f 63/3/1 61/3/1 62/3/1
f 66/3/1 65/3/1 64/3/1
f 67/3/1 65/3/1 66/3/1
f 70/3/1 69/3/1 68/3/1
f 71/3/1 69/3/1 70/3/1
f 72/3/1 69/3/1 71/3/1
f 73/5/1 72/5/1 71/5/1
f 74/5/1 72/5/1 73/5/1
f 75/3/2 76/3/2 77/3/2
f 77/3/2 76/3/2 78/3/2
f 78/3/2 76/3/2 79/3/2
f 78/5/2 79/5/2 80/5/2
f 80/5/2 79/5/2 81/5/2
f 82/3/2 83/3/2 84/3/2
f 84/3/2 83/3/2 85/3/2
f 85/3/2 86/3/2 87/3/2
f 87/3/2 86/3/2 88/3/2
f 89/3/2 90/3/2 91/3/2
f 91/3/2 90/3/2 92/3/2
f 93/3/2 94/3/2 95/3/2
f 95/3/2 94/3/2 96/3/2
f 96/3/2 97/3/2 98/3/2
f 98/3/2 97/3/2 99/3/2
f 100/3/2 101/3/2 104/3/2
f 104/3/2 101/3/2 105/3/2
f 102/3/2 103/3/2 106/3/2
f 106/3/2 103/3/2 107/3/2
f 108/3/2 109/3/2 110/3/2
f 110/3/2 109/3/2 111/3/2
f 111/3/2 109/3/2 112/3/2
f 111/5/2 112/5/2 113/5/2
f 113/5/2 112/5/2 114/5/2
f 113/1/2 114/1/2 115/1/2
f 115/1/2 114/1/2 116/1/2
f 115/4/2 116/4/2 117/4/2
f 117/4/2 116/4/2 118/4/2
f 117/1/2 118/1/2 119/1/2
f 119/1/2 118/1/2 120/1/2
f 119/4/2 120/4/2 121/4/2
f 121/4/2 120/4/2 122/4/2
f 121/1/2 122/1/2 123/1/2
f 123/1/2 122/1/2 124/1/2
f 126/3/2 127/3/2 129/3/2
f 127/3/2 128/3/2 129/3/2
f 125/3/2 126/3/2 129/3/2
f 129/3/2 128/3/2 130/3/2
f 129/2/2 130/2/2 131/2/2
f 131/2/2 130/2/2 132/2/2
f 131/7/2 132/7/2 133/7/2
f 132/2/2 130/2/2 134/2/2
f 133/7/2 132/7/2 134/7/2
f 134/2/2 130/2/2 135/2/2
f 130/3/2 128/3/2 136/3/2
f 135/2/2 130/2/2 136/2/2
f 134/2/2 135/2/2 137/2/2
f 133/2/2 134/2/2 137/2/2
f 135/3/2 136/3/2 138/3/2
f 137/2/2 135/2/2 138/2/2
f 137/3/2 138/3/2 139/3/2
f 139/3/2 138/3/2 140/3/2
f 136/3/2 128/3/2 141/3/2
f 140/3/2 138/3/2 141/3/2
f 138/3/2 136/3/2 141/3/2
f 141/3/2 128/3/2 142/3/2
f 140/3/2 141/3/2 143/3/2
f 143/3/2 141/3/2 144/3/2
f 145/2/2 146/2/2 147/2/2
f 147/2/2 146/2/2 148/2/2
f 157/3/3 152/3/3 151/3/3
f 157/2/3 153/2/3 152/2/3
f 158/7/3 154/7/3 153/7/3
f 158/2/3 153/2/3 157/2/3
f 159/2/3 155/2/3 154/2/3
f 159/7/3 154/7/3 158/7/3
f 160/3/3 156/3/3 155/3/3
f 162/3/3 150/3/3 149/3/3
f 163/3/3 150/3/3 162/3/3
f 164/3/3 158/3/3 157/3/3
f 164/3/3 157/3/3 151/3/3
f 165/3/3 158/3/3 164/3/3
f 166/6/3 159/6/3 158/6/3
f 166/3/3 158/3/3 165/3/3
f 167/2/3 155/2/3 159/2/3
f 167/6/3 159/6/3 166/6/3
f 170/2/3 165/2/3 164/2/3
f 171/3/3 166/3/3 165/3/3
f 171/2/3 165/2/3 170/2/3
f 172/2/3 167/2/3 166/2/3
f 172/3/3 166/3/3 171/3/3
f 173/2/3 155/2/3 167/2/3
f 173/2/3 167/2/3 172/2/3
f 174/3/3 172/3/3 171/3/3
f 174/3/3 171/3/3 170/3/3
f 175/6/3 173/6/3 172/6/3
f 175/3/3 172/3/3 174/3/3
f 176/2/3 155/2/3 173/2/3
f 176/6/3 173/6/3 175/6/3
f 177/3/3 161/3/3 160/3/3
f 177/3/3 160/3/3 155/3/3
f 178/3/3 161/3/3 177/3/3
f 179/3/3 169/3/3 168/3/3
f 180/3/3 169/3/3 179/3/3
f 181/3/3 174/3/3 170/3/3
f 182/2/3 175/2/3 174/2/3
f 182/3/3 174/3/3 181/3/3
f 183/7/3 176/7/3 175/7/3
f 183/2/3 175/2/3 182/2/3
f 184/2/3 155/2/3 176/2/3
f 184/7/3 176/7/3 183/7/3
f 185/3/3 177/3/3 155/3/3
f 185/2/3 155/2/3 184/2/3
f 186/3/3 177/3/3 185/3/3
f 189/2/3 188/2/3 187/2/3
f 190/2/3 188/2/3 189/2/3
f 191/2/3 188/2/3 190/2/3
f 192/4/3 190/4/3 189/4/3
f 193/1/3 191/1/3 190/1/3
f 193/4/3 190/4/3 192/4/3
f 194/1/3 191/1/3 193/1/3
f 195/1/3 193/1/3 192/1/3
f 196/4/3 194/4/3 193/4/3
f 196/1/3 193/1/3 195/1/3
f 197/4/3 194/4/3 196/4/3
f 198/4/3 196/4/3 195/4/3
f 199/1/3 197/1/3 196/1/3
f 199/4/3 196/4/3 198/4/3
f 200/1/3 197/1/3 199/1/3
f 207/1/3 199/1/3 198/1/3
f 208/4/3 200/4/3 199/4/3
f 208/1/3 199/1/3 207/1/3
f 209/4/3 200/4/3 208/4/3
f 212/5/3 202/5/3 201/5/3
f 212/1/3 203/1/3 202/1/3
f 213/4/3 204/4/3 203/4/3
f 213/1/3 203/1/3 212/1/3
f 214/1/3 205/1/3 204/1/3
f 214/4/3 204/4/3 213/4/3
f 215/4/3 206/4/3 205/4/3
f 215/1/3 205/1/3 214/1/3
f 216/1/3 207/1/3 206/1/3
f 216/4/3 206/4/3 215/4/3
f 217/4/3 208/4/3 207/4/3
f 217/1/3 207/1/3 216/1/3
f 218/1/3 209/1/3 208/1/3
f 218/4/3 208/4/3 217/4/3
f 219/1/3 209/1/3 218/1/3
f 220/3/3 211/3/3 210/3/3
f 221/3/3 211/3/3 220/3/3
f 222/5/3 212/5/3 201/5/3
f 223/5/3 212/5/3 222/5/3
f 224/4/3 213/4/3 212/4/3
f 224/5/3 212/5/3 223/5/3
f 225/1/3 214/1/3 213/1/3
f 225/4/3 213/4/3 224/4/3
f 226/4/3 215/4/3 214/4/3
f 226/1/3 214/1/3 225/1/3
f 227/1/3 216/1/3 215/1/3
f 227/4/3 215/4/3 226/4/3
f 228/4/3 217/4/3 216/4/3
f 228/1/3 216/1/3 227/1/3
f 229/1/3 218/1/3 217/1/3
f 229/4/3 217/4/3 228/4/3
f 230/4/3 219/4/3 218/4/3
f 230/1/3 218/1/3 229/1/3
f 231/4/3 219/4/3 230/4/3
f 233/5/3 224/5/3 223/5/3
f 234/6/3 227/6/3 226/6/3
f 234/6/3 226/6/3 225/6/3
f 234/5/3 224/5/3 233/5/3
f 234/6/3 225/6/3 224/6/3
f 234/6/3 230/6/3 229/6/3
f 234/6/3 229/6/3 228/6/3
f 234/6/3 228/6/3 227/6/3
f 235/6/3 230/6/3 234/6/3
f 236/6/3 230/6/3 235/6/3
f 237/6/3 230/6/3 236/6/3
f 238/6/3 230/6/3 237/6/3
f 239/6/3 230/6/3 238/6/3
f 240/2/3 231/2/3 230/2/3
f 240/6/3 230/6/3 239/6/3
f 241/2/3 231/2/3 240/2/3
f 242/5/3 233/5/3 232/5/3
f 242/5/3 234/5/3 233/5/3
f 242/4/3 235/4/3 234/4/3
f 243/1/3 236/1/3 235/1/3
f 243/4/3 235/4/3 242/4/3
f 244/4/3 237/4/3 236/4/3
f 244/1/3 236/1/3 243/1/3
f 245/1/3 238/1/3 237/1/3
f 245/4/3 237/4/3 244/4/3
f 246/4/3 239/4/3 238/4/3
f 246/1/3 238/1/3 245/1/3
f 247/1/3 240/1/3 239/1/3
f 247/4/3 239/4/3 246/4/3
f 248/4/3 241/4/3 240/4/3
f 248/1/3 240/1/3 247/1/3
f 249/4/3 241/4/3 248/4/3
f 252/5/3 242/5/3 232/5/3
f 253/1/3 243/1/3 242/1/3
f 253/5/3 242/5/3 252/5/3
f 254/4/3 244/4/3 243/4/3
f 254/1/3 243/1/3 253/1/3
f 255/1/3 245/1/3 244/1/3
f 255/4/3 244/4/3 254/4/3
f 256/4/3 246/4/3 245/4/3
f 256/1/3 245/1/3 255/1/3
f 257/1/3 247/1/3 246/1/3
f 257/4/3 246/4/3 256/4/3
f 258/4/3 248/4/3 247/4/3
f 258/1/3 247/1/3 257/1/3
f 259/1/3 249/1/3 248/1/3
f 259/4/3 248/4/3 258/4/3
f 260/1/3 249/1/3 259/1/3
f 261/3/3 251/3/3 250/3/3
f 262/3/3 251/3/3 261/3/3
f 263/1/3 259/1/3 258/1/3
f 264/4/3 260/4/3 259/4/3
f 264/1/3 259/1/3 263/1/3
f 265/4/3 260/4/3 264/4/3
f 266/4/3 264/4/3 263/4/3
f 267/1/3 265/1/3 264/1/3
f 267/4/3 264/4/3 266/4/3
f 268/1/3 265/1/3 267/1/3
f 269/1/3 267/1/3 266/1/3
f 270/4/3 268/4/3 267/4/3
f 270/1/3 267/1/3 269/1/3
f 271/4/3 268/4/3 270/4/3
f 272/4/3 270/4/3 269/4/3
f 273/1/3 271/1/3 270/1/3
f 273/4/3 270/4/3 272/4/3
f 274/1/3 271/1/3 273/1/3
f 275/2/3 273/2/3 272/2/3
f 275/2/3 274/2/3 273/2/3
f 276/2/3 274/2/3 275/2/3
f 277/2/4 278/2/4 279/2/4
f 279/2/4 278/2/4 280/2/4
f 280/2/4 278/2/4 281/2/4
f 279/4/4 280/4/4 282/4/4
f 280/1/4 281/1/4 283/1/4
f 282/4/4 280/4/4 283/4/4
f 283/1/4 281/1/4 284/1/4
f 282/1/4 283/1/4 285/1/4
f 283/4/4 284/4/4 286/4/4
f 285/1/4 283/1/4 286/1/4
f 286/4/4 284/4/4 287/4/4
f 285/4/4 286/4/4 288/4/4
f 286/1/4 287/1/4 289/1/4
f 288/4/4 286/4/4 289/4/4
f 289/1/4 287/1/4 290/1/4
f 288/1/4 289/1/4 298/1/4
f 289/4/4 290/4/4 299/4/4
f 298/1/4 289/1/4 299/1/4
f 299/4/4 290/4/4 300/4/4
f 292/5/4 293/5/4 303/5/4
f 293/1/4 294/1/4 303/1/4
f 294/4/4 295/4/4 304/4/4
f 303/1/4 294/1/4 304/1/4
f 295/1/4 296/1/4 305/1/4
f 304/4/4 295/4/4 305/4/4
f 296/4/4 297/4/4 306/4/4
f 305/1/4 296/1/4 306/1/4
f 297/1/4 298/1/4 307/1/4
f 306/4/4 297/4/4 307/4/4
f 298/4/4 299/4/4 308/4/4
f 307/1/4 298/1/4 308/1/4
f 299/1/4 300/1/4 309/1/4
f 308/4/4 299/4/4 309/4/4
f 309/1/4 300/1/4 310/1/4
f 301/3/4 302/3/4 311/3/4
f 311/3/4 302/3/4 312/3/4
f 291/3/4 292/3/4 313/3/4
f 292/5/4 303/5/4 314/5/4
f 313/3/4 292/3/4 314/3/4
f 314/5/4 303/5/4 315/5/4
f 303/4/4 304/4/4 316/4/4
f 315/5/4 303/5/4 316/5/4
f 304/1/4 305/1/4 317/1/4
f 316/4/4 304/4/4 317/4/4
f 305/4/4 306/4/4 318/4/4
f 317/1/4 305/1/4 318/1/4
f 306/1/4 307/1/4 319/1/4
f 318/4/4 306/4/4 319/4/4
f 307/4/4 308/4/4 320/4/4
f 319/1/4 307/1/4 320/1/4
f 308/1/4 309/1/4 321/1/4
f 320/4/4 308/4/4 321/4/4
f 321/1/4 309/1/4 322/1/4
f 315/5/4 316/5/4 325/5/4
f 316/1/4 317/1/4 326/1/4
f 325/5/4 316/5/4 326/5/4
f 317/4/4 318/4/4 327/4/4
f 326/1/4 317/1/4 327/1/4
f 318/1/4 319/1/4 328/1/4
f 327/4/4 318/4/4 328/4/4
f 319/4/4 320/4/4 329/4/4
f 328/1/4 319/1/4 329/1/4
f 320/1/4 321/1/4 330/1/4
f 329/4/4 320/4/4 330/4/4
f 330/1/4 321/1/4 331/1/4
f 326/4/4 327/4/4 333/4/4
f 325/5/4 326/5/4 333/5/4
f 324/5/4 325/5/4 333/5/4
f 327/1/4 328/1/4 334/1/4
f 333/4/4 327/4/4 334/4/4
f 328/4/4 329/4/4 335/4/4
f 334/1/4 328/1/4 335/1/4
f 329/1/4 330/1/4 336/1/4
f 335/4/4 329/4/4 336/4/4
f 330/4/4 331/4/4 337/4/4
f 336/1/4 330/1/4 337/1/4
f 331/1/4 332/1/4 338/1/4
f 337/4/4 331/4/4 338/4/4
f 338/1/4 332/1/4 339/1/4
f 323/3/4 324/3/4 343/3/4
f 324/5/4 333/5/4 344/5/4
f 343/3/4 324/3/4 344/3/4
f 333/1/4 334/1/4 345/1/4
f 344/5/4 333/5/4 345/5/4
f 334/4/4 335/4/4 346/4/4
f 345/1/4 334/1/4 346/1/4
f 335/1/4 336/1/4 347/1/4
f 346/4/4 335/4/4 347/4/4
f 336/4/4 337/4/4 348/4/4
f 347/1/4 336/1/4 348/1/4
f 337/1/4 338/1/4 349/1/4
f 348/4/4 337/4/4 349/4/4
f 338/4/4 339/4/4 350/4/4
f 349/1/4 338/1/4 350/1/4
f 339/1/4 340/1/4 351/1/4
f 350/4/4 339/4/4 351/4/4
f 351/1/4 340/1/4 352/1/4
f 341/3/4 342/3/4 353/3/4
f 353/3/4 342/3/4 354/3/4
f 350/1/4 351/1/4 355/1/4
f 351/4/4 352/4/4 356/4/4
f 355/1/4 351/1/4 356/1/4
f 356/4/4 352/4/4 357/4/4
f 355/4/4 356/4/4 358/4/4
f 356/1/4 357/1/4 359/1/4
f 358/4/4 356/4/4 359/4/4
f 359/1/4 357/1/4 360/1/4
f 358/1/4 359/1/4 361/1/4
f 359/4/4 360/4/4 362/4/4
f 361/1/4 359/1/4 362/1/4
f 362/4/4 360/4/4 363/4/4
f 361/4/4 362/4/4 364/4/4
f 362/1/4 363/1/4 365/1/4
f 364/4/4 362/4/4 365/4/4
f 365/1/4 363/1/4 366/1/4
f 364/2/4 365/2/4 367/2/4
f 365/2/4 366/2/4 367/2/4
f 367/2/4 366/2/4 368/2/4
f 369/3/4 370/3/4 372/3/4
f 372/3/4 370/3/4 373/3/4
f 373/3/4 370/3/4 374/3/4
f 371/3/4 372/3/4 377/3/4
f 377/3/4 372/3/4 378/3/4
f 373/3/4 374/3/4 379/3/4
f 374/3/4 375/3/4 379/3/4
f 379/3/4 375/3/4 380/3/4
f 376/3/4 377/3/4 381/3/4
f 381/3/4 377/3/4 382/3/4
f 380/3/4 375/3/4 385/3/4
f 382/3/4 383/3/4 386/3/4
f 386/3/4 383/3/4 387/3/4
f 384/3/4 385/3/4 388/3/4
f 385/3/4 375/3/4 389/3/4
f 388/3/4 385/3/4 389/3/4
f 389/3/4 375/3/4 390/3/4
f 387/3/4 388/3/4 391/3/4
f 388/3/4 389/3/4 391/3/4
f 391/3/4 389/3/4 392/3/4
f 393/3/4 394/3/4 396/3/4
f 396/3/4 394/3/4 397/3/4
f 395/3/4 396/3/4 399/3/4
f 397/3/4 398/3/4 399/3/4
f 396/3/4 397/3/4 399/3/4
f 399/3/4 398/3/4 400/3/4
f 400/3/4 398/3/4 401/3/4
f 401/3/4 398/3/4 402/3/4
f 400/3/4 401/3/4 403/3/4
f 403/3/4 401/3/4 404/3/4
f 409/3/5 406/3/5 405/3/5
f 410/3/5 406/3/5 409/3/5
f 411/3/5 408/3/5 407/3/5
f 412/3/5 408/3/5 411/3/5
f 415/5/5 414/5/5 413/5/5
f 416/5/5 414/5/5 415/5/5
f 429/2/5 418/2/5 417/2/5
f 430/4/5 419/4/5 418/4/5
f 430/2/5 418/2/5 429/2/5
f 431/1/5 420/1/5 419/1/5
f 431/4/5 419/4/5 430/4/5
f 432/4/5 421/4/5 420/4/5
f 432/1/5 420/1/5 431/1/5
f 433/1/5 422/1/5 421/1/5
f 433/4/5 421/4/5 432/4/5
f 434/1/5 422/1/5 433/1/5
f 437/1/5 424/1/5 423/1/5
f 438/4/5 425/4/5 424/4/5
f 438/1/5 424/1/5 437/1/5
f 439/1/5 426/1/5 425/1/5
f 439/4/5 425/4/5 438/4/5
f 440/4/5 427/4/5 426/4/5
f 440/1/5 426/1/5 439/1/5
f 441/2/5 428/2/5 427/2/5
f 441/4/5 427/4/5 440/4/5
f 442/2/5 428/2/5 441/2/5
f 443/3/5 436/3/5 435/3/5
f 444/3/5 436/3/5 443/3/5
f 449/3/5 446/3/5 445/3/5
f 450/3/5 446/3/5 449/3/5
f 451/3/5 448/3/5 447/3/5
f 452/3/5 448/3/5 451/3/5
f 453/3/5 451/3/5 450/3/5
f 454/3/5 451/3/5 453/3/5
f 459/3/5 456/3/5 455/3/5
f 460/3/5 456/3/5 459/3/5
f 461/2/5 457/2/5 456/2/5
f 461/3/5 456/3/5 460/3/5
f 462/3/5 458/3/5 457/3/5
f 462/2/5 457/2/5 461/2/5
f 463/3/5 458/3/5 462/3/5
f 464/3/5 458/3/5 463/3/5
f 469/3/5 466/3/5 465/3/5
f 470/3/5 466/3/5 469/3/5
f 473/3/5 468/3/5 467/3/5
f 474/3/5 468/3/5 473/3/5
f 475/3/5 471/3/5 470/3/5
f 476/3/5 471/3/5 475/3/5
f 477/3/5 473/3/5 472/3/5
f 478/3/5 473/3/5 477/3/5
f 479/3/6 480/3/6 483/3/6
f 483/3/6 480/3/6 484/3/6
f 481/3/6 482/3/6 485/3/6
f 485/3/6 482/3/6 486/3/6
f 487/2/6 488/2/6 499/2/6
f 488/1/6 489/1/6 500/1/6
f 499/2/6 488/2/6 500/2/6
f 489/4/6 490/4/6 501/4/6
f 500/1/6 489/1/6 501/1/6
f 490/1/6 491/1/6 502/1/6
f 501/4/6 490/4/6 502/4/6
f 491/4/6 492/4/6 503/4/6
f 502/1/6 491/1/6 503/1/6
f 503/4/6 492/4/6 504/4/6
f 493/4/6 494/4/6 505/4/6
f 494/1/6 495/1/6 506/1/6
f 505/4/6 494/4/6 506/4/6
f 495/4/6 496/4/6 507/4/6
f 506/1/6 495/1/6 507/1/6
f 496/1/6 497/1/6 508/1/6
f 507/4/6 496/4/6 508/4/6
f 497/2/6 498/2/6 509/2/6
f 508/1/6 497/1/6 509/1/6
f 509/2/6 498/2/6 510/2/6
f 511/3/6 512/3/6 515/3/6
f 515/3/6 512/3/6 516/3/6
f 513/3/6 514/3/6 517/3/6
f 517/3/6 514/3/6 518/3/6
f 519/3/6 520/3/6 523/3/6
f 523/3/6 520/3/6 524/3/6
f 521/3/6 522/3/6 525/3/6
f 525/3/6 522/3/6 526/3/6
f 527/3/6 528/3/6 531/3/6
f 531/3/6 528/3/6 532/3/6
f 529/3/6 530/3/6 535/3/6
f 535/3/6 530/3/6 536/3/6
f 533/3/6 534/3/6 537/3/6
f 537/3/6 534/3/6 538/3/6
f 539/3/6 540/3/6 542/3/6
f 542/3/6 540/3/6 543/3/6
f 541/3/6 542/3/6 545/3/6
f 543/3/6 544/3/6 545/3/6
f 542/3/6 543/3/6 545/3/6
f 545/3/6 544/3/6 546/3/6
f 546/3/6 544/3/6 547/3/6
f 547/3/6 544/3/6 548/3/6
f 546/3/6 547/3/6 549/3/6
f 549/3/6 547/3/6 550/3/6
